<svg xmlns="http://www.w3.org/2000/svg" xmlns:xlink="http://www.w3.org/1999/xlink" width="1024" height="1024" viewBox="0 0 1024 1024"><path fill="white" d="M0 0L1024 0L1024 883.092L1024 886.441L1024 1024L0 1024L0 852.809L0 837.699L0 0Z"/><path fill="white" d="M645.362 560.154C657.233 567.388 673.864 572.109 687.674 573.113C687.096 571.329 687.789 571.826 687.217 570.251C688.138 570.374 688.881 570.456 689.815 570.52C691.534 571.019 698.184 571.902 698.318 573.402C707.548 573.865 717.694 572.213 725.552 567.119C742.844 579.438 742.3 607.551 729.978 623.138C719.213 636.754 706.346 642.728 689.281 645.261C680.43 646.561 664.168 647.345 655.353 646.475C640.18 644.979 616.153 635.178 603.884 649.82C589.115 648.866 544.007 634.255 536.592 653.795C536.798 655.741 536.441 654.9 537.729 656.399C555.01 667.407 566.283 656.444 581.812 667.855C598.999 680.486 604.313 696.995 610.849 716.414L624.774 758.816C629.62 774.003 634.396 791.644 644.007 804.603C654.272 818.443 667.317 834.549 647.254 847.783C636.827 854.66 624.839 859.873 613.646 865.453C606.942 868.796 599.449 872.811 592.452 875.227C585.894 874.385 572.238 872.58 567.456 868.35C565.99 868.569 564.839 868.025 563.397 867.568C552.185 866.544 536.808 855.057 529.4 846.961C517.233 833.665 510.24 818.62 505.814 801.334C495.838 762.364 502.1 728.197 503.681 688.988C503.504 688.564 503.442 687.703 503.375 687.197C503.475 683.839 503.964 679.994 504.316 676.611C502.365 668.486 506.332 616.816 509.955 609.961C510.506 607.694 510.512 607.417 511.691 605.463C511.554 600.906 514.87 595.08 518.015 591.849C531.901 581.74 600.621 570.755 620.538 566.622C628.907 564.85 637.191 562.691 645.362 560.154Z"/><path fill="white" d="M503.681 688.988C515.297 700.763 525.456 714.121 536.076 726.691C549.747 742.254 562.92 758.474 575.459 774.958C586.708 789.746 602.492 806.152 602.848 825.681C603.256 848.053 576.196 854.874 563.397 867.568C552.185 866.544 536.808 855.057 529.4 846.961C517.233 833.665 510.24 818.62 505.814 801.334C495.838 762.364 502.1 728.197 503.681 688.988Z"/><path fill="#272322" d="M504.549 685.498C511.189 693.819 519.154 701.734 526.117 709.859C544.201 730.643 561.666 751.957 578.49 773.774C594.677 794.746 623.246 827.858 591.89 850.939C584.126 856.653 575.557 863.218 567.456 868.35C565.99 868.569 564.839 868.025 563.397 867.568C576.196 854.874 603.256 848.053 602.848 825.681C602.492 806.152 586.708 789.746 575.459 774.958C562.92 758.474 549.747 742.254 536.076 726.691C525.456 714.121 515.297 700.763 503.681 688.988C503.504 688.564 503.442 687.703 503.375 687.197L504.549 685.498Z"/><path fill="white" d="M509.955 609.961C514.768 633.185 513.031 654.591 504.316 676.611C502.365 668.486 506.332 616.816 509.955 609.961Z"/><defs><linearGradient id="gradient_0" gradientUnits="userSpaceOnUse" x1="506.65579" y1="645.15131" x2="513.94116" y2="646.00317"><stop offset="0" stop-color="#111010"/><stop offset="1" stop-color="#2E2623"/></linearGradient></defs><path fill="url(#gradient_0)" d="M509.955 609.961C510.506 607.694 510.512 607.417 511.691 605.463C517.098 625.643 516.913 646.559 510.961 666.759C509.451 671.885 505.153 680.536 504.549 685.498L503.375 687.197C503.475 683.839 503.964 679.994 504.316 676.611C513.031 654.591 514.768 633.185 509.955 609.961Z"/><path fill="#46231B" d="M687.217 570.251C688.138 570.374 688.881 570.456 689.815 570.52C691.534 571.019 698.184 571.902 698.318 573.402C694.784 573.46 691.183 573.557 687.674 573.113C687.096 571.329 687.789 571.826 687.217 570.251Z"/><path fill="white" d="M748.539 530.456C748.558 530.194 748.576 529.932 748.595 529.67C752.97 513.182 756.729 496.45 761.847 480.161C766.251 466.142 771.863 450.667 783.365 440.876C789.183 436.02 802.277 432.704 809.671 433.748C822.22 435.518 828.995 445.7 826.567 457.868C824.445 468.5 820.737 477.472 817.721 487.808C806.677 524.982 794.171 561.459 787.377 599.778C785.006 613.148 782.127 626.623 777.776 639.517C775.588 645.762 772.533 649.837 767.216 653.689C761.034 658.227 753.877 661.258 746.316 662.541C734.077 664.557 705.632 662.885 691.604 662.836C682.764 662.744 673.923 662.779 665.085 662.941C652.494 663.256 617.973 665.287 609.775 654.173C607.904 650.283 607.595 651.385 603.884 649.82C616.153 635.178 640.18 644.979 655.353 646.475C664.168 647.345 680.43 646.561 689.281 645.261C706.346 642.728 719.213 636.754 729.978 623.138C742.3 607.551 742.844 579.438 725.552 567.119C726.145 566.534 727.347 565.593 728.03 565.021C728.211 564.017 732.758 558.593 733.677 557.419C738.564 551.176 742.392 544.27 746.424 537.438C746.188 534.883 747.426 532.665 748.539 530.456Z"/><path fill="white" d="M748.539 530.456C749.92 537.277 752.893 561.692 752.406 569.652C751.092 591.093 750.149 625.582 738.816 643.959C734.642 650.728 727.981 654.017 720.652 655.23C698.819 658.843 676.493 656.829 654.514 655.836C641.86 655.265 621.69 656.413 609.775 654.173C607.904 650.283 607.595 651.385 603.884 649.82C616.153 635.178 640.18 644.979 655.353 646.475C664.168 647.345 680.43 646.561 689.281 645.261C706.346 642.728 719.213 636.754 729.978 623.138C742.3 607.551 742.844 579.438 725.552 567.119C726.145 566.534 727.347 565.593 728.03 565.021C728.211 564.017 732.758 558.593 733.677 557.419C738.564 551.176 742.392 544.27 746.424 537.438C746.188 534.883 747.426 532.665 748.539 530.456Z"/><path fill="#272322" d="M748.539 530.456C749.92 537.277 752.893 561.692 752.406 569.652C751.092 591.093 750.149 625.582 738.816 643.959C734.642 650.728 727.981 654.017 720.652 655.23C698.819 658.843 676.493 656.829 654.514 655.836C641.86 655.265 621.69 656.413 609.775 654.173C607.904 650.283 607.595 651.385 603.884 649.82C616.153 635.178 640.18 644.979 655.353 646.475C664.168 647.345 680.43 646.561 689.281 645.261C706.346 642.728 719.213 636.754 729.978 623.138C742.3 607.551 742.844 579.438 725.552 567.119C726.145 566.534 727.347 565.593 728.03 565.021C735.728 571.941 737.807 575.544 740.288 585.507C743.904 600.028 741.698 609.917 733.823 622.627C720.74 643.742 696.762 648.87 673.591 649.583C666.806 649.791 660.075 650.059 653.225 649.18C640.725 647.576 627.781 643.16 615.132 646.136C613.255 646.577 609.777 648.496 608.788 650.164C613.757 653.648 648.507 652.762 656.498 653.128C678.309 654.126 700.684 655.567 722.276 651.678C727.518 650.734 734.285 646.571 736.596 641.814C748.789 616.711 752.848 563.976 746.424 537.438C746.188 534.883 747.426 532.665 748.539 530.456Z"/><path fill="white" d="M499.324 686.168C486.755 720.195 479.279 749.748 474.976 786.366C472.832 804.603 475.738 865.212 458.438 874.377C444.746 881.629 407.29 877.79 390.754 877.825C381.349 877.845 356.944 877.454 350.402 869.839C346.891 863.037 363.235 860.377 366.26 859.344C385.179 852.883 407.371 849.717 425.737 842.83C438.218 838.15 434.126 803.683 434.245 792.283C434.594 758.633 433.226 724.56 434.439 690.851C435.25 672.14 432.413 649.57 438.245 631.589C445.631 608.817 473.462 585.896 498.185 593.991C495.683 595.031 492.578 596.236 490.348 597.574C468.13 610.907 473.282 642.918 484.304 661.961C485.833 664.603 487.168 667.86 488.909 670.449C492.367 675.587 496.263 680.413 499.584 685.691L499.324 686.168Z"/><path fill="#272322" d="M440.119 306.108C440.856 303.791 440.861 303.596 442.309 301.71L443.451 301.292C445.41 302.397 446.263 304.74 446.653 306.86C449.149 320.411 454.315 332.52 461.749 344.157C469.989 356.811 485.083 363.917 485.666 380.738C486.172 397.445 484.804 413.485 484.009 430.237C483.608 438.702 479.73 468.243 496.627 463.284C508.041 459.934 511.856 438.836 514.945 429.369C518.797 417.568 526.254 401.888 539.014 397.391C558.709 390.963 564.062 425.014 565.779 437.864C568.292 456.67 571.762 476.259 572.35 495.252C572.208 507.455 558.073 510.207 548.546 510.085C536.422 509.93 524.439 507.672 512.432 507.886C499.486 508.117 485.983 513.018 472.91 513.886C468.63 514.17 463.448 515.484 461.542 519.435C459.791 522.662 459.81 526.505 463.564 528.459C475.072 533.185 488.542 530.951 500.668 531.686C516.398 532.354 531.911 535.748 547.385 538.441C559.465 540.545 569.144 543.829 581.285 539.739C597.333 534.332 600.112 520.743 606.831 507.877C604.798 504.114 603.127 497.084 601.918 492.684C592.801 459.515 587.609 422.853 590.538 388.471C591.325 379.238 594.267 367.573 603.224 363.436C608.154 361.145 614.347 359.471 619.687 361.327C626.377 363.706 631.808 368.708 634.729 375.179C645.388 399.062 624.82 462.419 617.283 487.239C615.356 493.587 611.825 501.682 609.797 508.223C618.108 527.239 627.666 545.861 645.906 556.897C652.069 554.974 657.341 553.292 663.693 552.088C681.826 548.653 706.196 553.006 722.5 561.512C723.214 561.885 723.923 562.267 724.626 562.659L721.754 564.321C720.211 568.469 705.885 570.247 701.834 570.742C698.262 571.178 693.486 570.737 689.815 570.52C688.881 570.456 688.138 570.374 687.217 570.251C687.789 571.826 687.096 571.329 687.674 573.113C673.864 572.109 657.233 567.388 645.362 560.154C637.191 562.691 628.907 564.85 620.538 566.622C600.621 570.755 531.901 581.74 518.015 591.849C517.877 590.242 518.01 590.273 518.662 588.753C520.707 587.83 519.434 586.409 520.113 585.994C522.744 584.387 526.995 583.703 530.084 582.038C533.433 581.84 542.251 579.639 545.829 578.811C554.373 576.796 562.936 574.861 571.516 573.006C595.597 567.816 618.466 564.543 642.123 557.993C625.326 546.34 615.881 530.866 608.011 512.06C601.607 526.329 595.89 539.788 578.885 543.526C573.933 544.614 568.791 545.168 563.728 544.456C548.052 542.249 532.557 538.51 516.89 536.172C504.233 534.015 491.4 535.339 478.744 534.76C468.997 534.313 459.366 533.914 457.003 523.058C439.321 534.273 419.786 532.012 402.152 521.625C396.682 518.67 391.478 512.401 385.158 511.659C382.049 511.295 379.107 516.603 377.746 518.774C376.385 520.947 373.799 522.923 373.77 525.347C378.791 528.337 392.016 520.391 394.605 520.786L394.973 521.793C394.757 522.835 394.868 523.572 394.14 523.879C387.875 526.461 380.614 529.309 373.728 528.88C371.378 528.733 370.367 526.973 369.144 525.224C366.583 525.974 364.638 530.921 360.535 531.504C358.812 530.492 359.492 531.175 358.549 529.267C358.391 527.4 363.114 519.837 364.435 517.322C359.355 520.727 353.8 527.848 348.954 527.914C345.198 525.599 349.567 517.617 351.248 514.903C355.577 507.912 367.36 498.624 375.701 497.819C390.925 496.35 407.784 503.029 423.145 504.154C432.752 505.034 441.121 506.365 451.044 506.653C457.906 506.853 465.46 507.599 472.466 507.584C473.138 507.583 475.117 509.023 475.764 509.48L476.359 509.907C487.188 510.173 498.105 505.136 510.222 504.711C525.539 503.916 541.222 508.497 556.391 506.434C563.746 505.3 570.233 501.68 569.529 493.219C567.624 469.67 564.597 445.27 559.65 422.221C557.645 412.883 551.106 395.378 539.162 400.313C519.933 408.259 517.874 438.078 509.728 454.447C507.298 459.331 502.206 464.785 496.939 466.209C477.072 470.028 479.969 443.824 480.568 432.353L482.379 399.526C482.673 393.449 483.105 387.244 482.771 381.153C481.924 365.697 468.271 359.367 460.321 347.114C451.158 332.992 448.263 326.216 444.218 310.604C443.344 312.357 443.597 313.118 443.433 315.188C443.489 319.449 446.809 333.15 444.522 335.625L443.553 335.018C441.506 330.471 439.698 313.073 439.546 307.494C439.743 307.035 439.935 306.573 440.119 306.108Z"/><path fill="white" d="M649.273 558.644C676.161 550.887 696.046 553.126 721.754 564.321C720.211 568.469 705.885 570.247 701.834 570.742C698.262 571.178 693.486 570.737 689.815 570.52C688.881 570.456 688.138 570.374 687.217 570.251C674.203 568.136 660.634 565.739 649.273 558.644Z"/><path fill="#CFCECB" d="M443.433 315.188C443.277 314.332 442.444 308.217 443.559 308.452C443.898 308.742 443.959 309.301 444.032 309.705L444.218 310.604C443.344 312.357 443.597 313.118 443.433 315.188Z"/><path fill="white" d="M611.648 364.069C614.451 363.819 616.884 363.765 619.6 364.645C625.161 366.446 629.341 370.614 631.803 375.861C642.904 399.522 619.305 472.673 610.158 497.75L608.28 503.873C605.728 496.096 603.635 488.103 601.705 480.15C595.932 456.361 585.66 391.887 598.741 371.648C601.627 367.184 606.68 365.181 611.648 364.069Z"/><path fill="white" d="M377.669 500.568C390.41 499.729 409.972 506.198 423.487 507.438C437.655 508.737 451.479 509.954 465.715 510.748C458.74 515.047 459.767 518.81 450.12 523.116C436.602 529.151 425.982 528.217 412.372 523.265C408.601 521.721 406.194 520.548 402.778 518.539C398.054 515.76 391.614 509.067 386.276 508.816C376.922 508.375 369.487 520.475 363.49 525.74L362.824 526.32C364.171 523.828 368.406 516.513 368.61 514.131C365.303 509.63 354.538 521.797 351.471 523.961L351.085 523.5C351.168 518.147 357.198 511.7 361.174 508.351C366.305 504.03 371.268 502.078 377.669 500.568Z"/><path fill="#272322" d="M903.688 859.319C890.562 850.19 879.806 837.262 877.049 821.099C875.525 809.473 875.626 799.531 882.351 789.616C898.201 766.249 933.342 771.9 937.785 800.816C940.996 821.713 924.076 845.95 909.233 858.907C927.402 870.582 940.498 873.824 961.226 877.233C982.358 880.709 1002.47 883.115 1024 883.092L1024 886.441C1004.18 886.246 986.269 884.242 966.775 880.956C952.534 878.555 941.361 877.582 927.372 872.011C919.091 868.714 914.25 865.616 906.562 861.18C882.84 879.686 850.047 882.38 820.996 882.589C794.988 882.775 769.067 876.879 748.806 859.696L748.546 859.327C749.437 858.048 749.765 857.633 751.306 857.53C779.088 886.612 849.724 883.007 885.128 869.873C890.845 867.752 898.536 862.758 903.688 859.319Z"/><path fill="white" d="M906.388 778.163C907.11 778.115 907.833 778.087 908.556 778.081C915.55 778.09 922.254 780.876 927.195 785.826C932.689 791.312 935.419 798.945 935.36 806.634C935.215 825.556 920.093 844.249 907.341 856.979L906.507 857.266C905.877 857.025 905.359 856.819 904.785 856.458C892.56 848.768 882.219 833.7 879.738 819.491C878.022 809.662 879.238 799.064 885.143 790.801C890.087 783.884 898.086 779.486 906.388 778.163Z"/><path fill="#272322" d="M502.609 592.93C508.572 591.225 510.079 590.352 515.405 587.194L516.092 587.23C517.457 587.294 517.712 586.795 517.918 588.412C517.133 589.032 514.316 591.163 513.821 591.771C513.565 593.238 510.448 598.024 509.445 599.418C510.261 601.378 509.688 602.633 508.134 604.105C504.045 613.22 500.734 648.128 500.847 659.206C500.891 663.583 500.718 677.308 499.677 680.72C500.498 682.635 500.47 683.748 499.584 685.691C496.263 680.413 492.367 675.587 488.909 670.449C487.168 667.86 485.833 664.603 484.304 661.961C473.282 642.918 468.13 610.907 490.348 597.574C492.578 596.236 495.683 595.031 498.185 593.991C473.462 585.896 445.631 608.817 438.245 631.589C432.413 649.57 435.25 672.14 434.439 690.851C433.226 724.56 434.594 758.633 434.245 792.283C434.126 803.683 438.218 838.15 425.737 842.83C407.371 849.717 385.179 852.883 366.26 859.344C363.235 860.377 346.891 863.037 350.402 869.839C356.944 877.454 381.349 877.845 390.754 877.825C407.29 877.79 444.746 881.629 458.438 874.377C475.738 865.212 472.832 804.603 474.976 786.366C479.279 749.748 486.755 720.195 499.324 686.168C500.971 689.583 500.306 692.873 499.292 696.38C487.183 726.519 480.228 761.369 477.413 793.781C475.593 814.729 476.235 835.138 472.539 856.076C467.572 884.216 446.366 881.644 423.925 881.524C409.464 881.223 397.941 881.531 383.023 880.681C375.445 880.249 340.85 879.935 347.923 864.549C349.824 860.412 358.789 858.169 363.401 856.869C381.349 851.807 399.687 847.238 417.742 842.521C423.108 841.113 427.674 839.023 429.455 833.219C432.907 820.817 431.215 806.297 431.167 793.527C430.764 759.287 430.803 725.043 431.284 690.803C431.612 668.904 428.986 640.331 439.835 620.563C450.596 600.953 480.097 580.283 502.609 592.93Z"/><path fill="white" d="M501.396 595.757C504.309 598.513 506.296 600.43 508.134 604.105C504.045 613.22 500.734 648.128 500.847 659.206C500.891 663.583 500.718 677.308 499.677 680.72C486.092 663.235 471.484 635.052 480.666 612.926C484.543 603.583 492.624 599.276 501.396 595.757Z"/><path fill="white" d="M513.821 591.771C513.565 593.238 510.448 598.024 509.445 599.418C508.097 597.851 507.031 596.411 505.743 594.825C508.551 593.768 511.046 592.994 513.821 591.771Z"/><path fill="#272322" d="M745.625 857.06C744.575 855.969 743.549 854.856 742.546 853.721C739.505 850.271 736.019 846.318 733.585 842.473C723.817 827.038 720.561 803.797 735.872 790.843C741.578 785.975 749.022 783.643 756.486 784.385C772.446 785.927 780.345 800.089 778.604 814.877C776.612 831.799 764.582 846.345 751.88 856.676C751.727 856.982 751.51 857.249 751.306 857.53C749.765 857.633 749.437 858.048 748.546 859.327C746.818 859.231 746.334 858.902 745.861 857.183L745.625 857.06Z"/><path fill="white" d="M748.475 855.391L747.8 854.747C744.702 851.75 741.563 848.013 738.86 844.663C728.59 831.93 723.407 807.193 736.143 794.466C741 789.664 747.611 787.059 754.438 787.257C760.303 787.436 765.844 789.99 769.79 794.333C774.625 799.553 776.291 806.622 775.831 813.54C774.752 829.761 762.051 843.888 750.569 854.111C749.84 854.534 749.187 854.931 748.475 855.391Z"/><path fill="#D66037" d="M750.569 854.111C751.508 855.311 751.413 855.234 751.88 856.676C751.727 856.982 751.51 857.249 751.306 857.53C749.765 857.633 749.437 858.048 748.546 859.327C746.818 859.231 746.334 858.902 745.861 857.183C746.727 856.577 747.598 855.98 748.475 855.391C749.187 854.931 749.84 854.534 750.569 854.111Z"/><path fill="#F06F44" d="M209.899 508.094C215.029 499.472 218.4 489.139 222.541 479.846C229.658 464.057 237.502 448.561 245.055 432.98C247.526 427.883 254.367 405.653 258.019 403.856L258.564 404.657C258.793 406.411 258.926 408.172 258.232 409.843C244.4 443.114 228.32 475.024 214.051 508.199C221.62 508.207 227.043 509.325 233.756 509.472C234.505 509.582 236.222 509.784 236.869 509.963L237.752 510.195C258.72 515.438 279.884 519.863 301.197 523.458C305.735 524.253 321.542 525.321 323.839 527.415L323.805 528.222C318.652 532.463 257.404 517.282 248.82 515.897C246.519 515.526 239.21 513.397 237.272 513.927L236.838 515.075L236.632 513.925C235.335 512.713 235.532 513.117 233.213 512.993C222.812 511.034 221.905 511.775 211.809 511.538L209.08 512.013C200.101 512.52 193.953 512.812 185.038 514.694C163.739 519.189 144.844 533.037 130.579 549.029C110.589 571.437 103.138 613.091 105.14 642.184C107.028 666.471 111.722 691.754 121.412 714.164C128.232 729.94 138.787 744.23 146.936 759.232C153.659 771.61 163.753 790.382 166.604 803.809C170.164 820.578 166.341 842.142 154.476 854.84C141.915 868.865 123.264 875.481 104.873 876.971C87.4066 878.263 73.1243 874.858 59.8059 862.964C55.1979 858.918 51.0834 854.343 47.5476 849.333C43.1658 843.093 35.2128 824.271 25.8934 825.219C23.048 824.239 20.2475 823.728 17.3055 823.115L16.8249 822.066C17.4074 821.994 17.9903 821.925 18.5737 821.86C37.1133 819.777 41.3907 831.89 48.6515 845.04C51.8805 850.888 57.6422 857.377 62.9538 861.564C78.0268 873.444 91.5463 875.407 110.245 873.32C126.321 871.526 144.707 863.076 154.489 849.89C186.358 806.93 134.619 752.069 117.421 713.386C110.836 698.576 104.937 669.923 102.785 653.97C98.6013 622.957 105.583 574.877 125.722 549.73C138.429 533.863 157.022 519.244 176.887 513.621C187.732 510.55 198.707 509.411 209.899 508.094Z"/><path fill="#F06F44" d="M747.055 522.157C748.968 518.336 750.171 509.569 751.417 505.214C756.611 487.06 762.53 459.065 774.803 444.708C779.307 439.346 785.216 435.345 791.866 433.152C814.877 425.415 835.22 435.644 828.748 462.654C826.936 470.406 823.95 477.841 821.767 485.488C811.815 520.352 799.547 554.247 792.629 589.943C789.308 607.082 786.336 628.635 779.187 644.365C772.2 659.741 749.926 667.453 734.257 666.853C729.109 666.765 723.913 666.635 718.749 666.516C707.725 666.203 696.698 666.067 685.67 666.107C675.762 666.127 665.655 666.28 655.755 666.602C636.522 667.226 617.214 667.748 602.821 652.8C588.119 651.419 552.388 640.48 541.293 652.149C539.367 653.945 538.991 654.165 537.729 656.399C536.441 654.9 536.798 655.741 536.592 653.795C544.007 634.255 589.115 648.866 603.884 649.82C607.595 651.385 607.904 650.283 609.775 654.173C617.973 665.287 652.494 663.256 665.085 662.941C673.923 662.779 682.764 662.744 691.604 662.836C705.632 662.885 734.077 664.557 746.316 662.541C753.877 661.258 761.034 658.227 767.216 653.689C772.533 649.837 775.588 645.762 777.776 639.517C782.127 626.623 785.006 613.148 787.377 599.778C794.171 561.459 806.677 524.982 817.721 487.808C820.737 477.472 824.445 468.5 826.567 457.868C828.995 445.7 822.22 435.518 809.671 433.748C802.277 432.704 789.183 436.02 783.365 440.876C771.863 450.667 766.251 466.142 761.847 480.161C756.729 496.45 752.97 513.182 748.595 529.67C748.576 529.932 748.558 530.194 748.539 530.456C747.426 532.665 746.188 534.883 746.424 537.438C742.392 544.27 738.564 551.176 733.677 557.419C732.758 558.593 728.211 564.017 728.03 565.021C727.347 565.593 726.145 566.534 725.552 567.119C717.694 572.213 707.548 573.865 698.318 573.402C698.184 571.902 691.534 571.019 689.815 570.52C693.486 570.737 698.262 571.178 701.834 570.742C705.885 570.247 720.211 568.469 721.754 564.321L724.626 562.659C732.668 557.33 742.468 539.44 745.149 529.652C746.512 527.09 746.7 524.95 747.055 522.157Z"/><path fill="#272322" d="M543.973 296.836C546.221 289.796 549.868 280.879 546.689 273.761C541.656 262.491 535.04 268.823 528.692 271.822C524.943 269.649 518.305 252.757 513.569 248.013C489.294 223.695 451.803 247.029 439.997 272.927C438.575 276.046 438.439 283.693 434.78 283.289C433.061 278.479 437.924 271.251 440.129 267.09C451.379 245.857 476.053 230.052 500.485 236.439C516.514 240.629 521.96 254.73 529.195 267.904C536.274 261.643 545.158 263.552 549.296 272.16C553.069 280.008 550.266 288.261 547.515 295.936C551.873 304.216 555.507 312.098 561.073 319.714C570.42 332.501 573.561 337.964 589.367 340.89C600.671 336.35 609.172 333.906 621.493 336.645C650.743 343.146 672.051 365.597 687.614 389.898C709.246 423.676 727.07 459.862 740.915 497.488C743.686 505.031 745.367 514.295 747.055 522.157C746.7 524.95 746.512 527.09 745.149 529.652C741.702 509.183 737.606 495.645 729.543 476.518C716.211 444.889 700.264 414.157 681.198 385.544C667.287 364.667 645.303 344.446 619.946 339.625C596.315 334.729 580.864 350.666 563.385 363.426C553.959 370.307 540.588 375.317 532.48 363.527C530.726 364.711 529.072 365.427 527.237 366.407C520.496 370.005 487.908 371.728 484.707 363.713L485.275 363.106C490.394 363.325 494.14 366.723 500.112 366.478C509.985 366.073 523.866 367.338 531.518 359.829C531.945 354.384 538.286 317.648 541.082 316.557C544.861 323.933 538.45 351.917 535.101 360.019C536.56 363.797 538.311 366.869 542.927 367.173C554.174 367.913 563.28 359.373 571.73 353.256C576.339 349.92 581.023 346.755 585.535 343.286C561.795 336.903 556.705 315.812 544.436 297.519L543.973 296.836Z"/><path fill="#272322" d="M0 837.699C3.33166 827.057 5.39783 823.074 16.8249 822.066L17.3055 823.115C20.2475 823.728 23.048 824.239 25.8934 825.219C33.1035 830.088 40.2458 836.902 42.0532 845.757C44.6168 858.316 37.4745 874.1 23.9969 876.565C19.3592 877.455 14.5597 876.4 10.722 873.649C3.90629 868.715 2.41056 860.472 0 852.809L0 837.699Z"/><path fill="white" d="M11.3861 825.538C13.2376 825.492 15.1658 825.368 16.9977 825.683C24.255 826.929 31.2554 832.283 35.5185 838.243C38.9052 842.977 40.0996 849.347 38.9665 854.997C37.6353 861.635 34.5471 867.961 28.8252 871.786C27.59 872.376 26.3145 872.955 24.994 873.33C21.0195 874.46 16.7362 873.759 13.1883 871.682C8.33598 868.84 5.80604 863.289 4.57215 857.993C4.38173 857.176 4.16788 856.327 4.0412 855.497C3.21943 850.118 2.72952 844.665 3.39032 839.247C3.5575 837.877 3.773 836.621 4.15103 835.287C5.37413 830.973 7.49759 827.748 11.3861 825.538Z"/><path fill="#F06F44" d="M517.918 588.412L518.662 588.753C518.01 590.273 517.877 590.242 518.015 591.849C514.87 595.08 511.554 600.906 511.691 605.463C510.512 607.417 510.506 607.694 509.955 609.961C506.332 616.816 502.365 668.486 504.316 676.611C503.964 679.994 503.475 683.839 503.375 687.197C503.442 687.703 503.504 688.564 503.681 688.988C502.1 728.197 495.838 762.364 505.814 801.334C510.24 818.62 517.233 833.665 529.4 846.961C536.808 855.057 552.185 866.544 563.397 867.568C564.839 868.025 565.99 868.569 567.456 868.35C572.238 872.58 585.894 874.385 592.452 875.227C594.442 875.935 596.423 876.408 598.555 876.416C601.974 877.887 611.986 878.672 615.83 879.068C638.241 881.374 659.912 882.922 682.323 879.666C701.019 876.949 721.987 873.039 738.034 862.703C740.499 861.115 743.853 859.358 745.625 857.06L745.861 857.183C746.334 858.902 746.818 859.231 748.546 859.327L748.806 859.696C745.2 862.129 737.14 867.685 733.471 869.402C700.621 884.778 659.628 886.292 623.998 883.086C613.099 882.105 602.622 880.118 592.531 879.249C590.342 877.947 588.574 877.821 586.005 878.161C584.567 877.438 583.904 877.432 582.248 877.085L579.995 876.669C575.482 875.826 571.689 874.798 567.581 872.727C566.382 872.124 564.256 870.966 562.944 871.163C561.602 870.727 561.289 870.663 559.887 870.44C550.693 866.772 544.4 864.43 536.583 858.224C503.137 830.791 494.455 782.863 496.794 741.776C497.476 729.811 500.856 706.603 499.292 696.38C500.306 692.873 500.971 689.583 499.324 686.168L499.584 685.691C500.47 683.748 500.498 682.635 499.677 680.72C500.718 677.308 500.891 663.583 500.847 659.206C500.734 648.128 504.045 613.22 508.134 604.105C509.688 602.633 510.261 601.378 509.445 599.418C510.448 598.024 513.565 593.238 513.821 591.771C514.316 591.163 517.133 589.032 517.918 588.412Z"/><path fill="#272322" d="M429.667 286.096C425.929 294.69 426.225 302.504 425.962 311.749C425.756 318.966 424.745 328.336 426.707 335.277C428.285 340.855 435.651 345.536 439.778 349.731C446.524 356.589 451.712 366.018 453.094 375.677C454.191 385.434 452.633 395.586 451.513 405.324C449.867 419.637 448.92 433.906 448.036 448.254C447.304 460.122 446.822 467.916 449.504 479.54C456.442 509.603 483.062 505.497 506.123 499.279C527.001 493.65 543.99 481.147 551.923 460.79C553.408 456.978 554.946 446.829 556.21 444.506L557.051 444.535C557.62 445.202 558.008 445.728 558.255 446.59C559.656 451.468 553.456 465.099 551.001 469.466C540.575 488.017 524.014 497.517 504.006 503.099C491.397 506.616 472.739 509.517 460.806 502.526C442.453 491.775 444.647 463.408 445.56 445.385C446.016 436.365 446.3 427.265 447.235 418.28C448.51 406.031 450.736 393.373 450.265 381.055C449.168 352.34 426.609 349.622 422.963 333.47C421.186 325.597 422.287 292.273 426.575 286.286C427.357 285.193 428.135 284.73 429.451 284.461C432.924 285.301 431.474 287.004 433.568 290.321C440.174 293.781 438.807 298.406 438.769 305.235L440.119 306.108C439.935 306.573 439.743 307.035 439.546 307.494L438.508 308.487C438.384 312.293 435.924 333.155 434.273 335.538C432.38 336.651 433.32 336.532 431.424 336.273C429.799 334.533 429.394 328.461 429.002 325.97C426.897 312.614 430.349 299.389 429.667 286.096Z"/><path fill="#CFCECB" d="M438.769 305.235L440.119 306.108C439.935 306.573 439.743 307.035 439.546 307.494L438.508 308.487C438.541 307.147 438.578 306.557 438.769 305.235Z"/><path fill="white" d="M431.941 327.018C432.281 319.116 430.237 310.086 432.068 301.993C432.056 302.05 434.332 290.099 435.455 296.993C437.166 307.504 433.344 319.295 432.944 329.618C432.614 328.708 432.336 327.904 431.941 327.018Z"/><path fill="#9D9C9D" d="M431.941 327.018C432.336 327.904 432.614 328.708 432.944 329.618C432.864 330.079 432.876 330.433 432.54 330.759C431.768 330.758 431.949 327.41 431.941 327.018Z"/><path fill="#272322" d="M541.293 652.149C555.712 649.606 560.617 650.451 572.901 658.673C576.045 660.777 579.341 662.674 582.428 664.852C589.285 669.69 595.587 675.864 600.149 682.931C604.61 689.843 607.343 697.808 610.213 705.471C616.627 722.599 621.938 740.084 627.437 757.521C630.404 766.929 632.777 776.676 636.805 785.715C639.242 791.185 642.349 796.606 645.67 801.585C651.043 809.641 658.702 817.826 660.393 827.644C661.345 833.168 660.138 838.1 656.864 842.626C648.219 854.577 612.97 868.964 598.555 876.416C596.423 876.408 594.442 875.935 592.452 875.227C599.449 872.811 606.942 868.796 613.646 865.453C624.839 859.873 636.827 854.66 647.254 847.783C667.317 834.549 654.272 818.443 644.007 804.603C634.396 791.644 629.62 774.003 624.774 758.816L610.849 716.414C604.313 696.995 598.999 680.486 581.812 667.855C566.283 656.444 555.01 667.407 537.729 656.399C538.991 654.165 539.367 653.945 541.293 652.149Z"/><path fill="white" d="M550.329 654.202C556.747 653.029 563.064 655.844 568.507 658.931C568.077 658.971 567.647 659.007 567.217 659.052C565.388 659.245 563.595 659.351 561.758 659.422C556.628 659.425 549.124 659.395 544.56 656.743C544.212 656.54 543.77 656.266 543.692 655.83C543.663 655.664 543.71 655.509 543.819 655.378C544.666 654.354 549.052 654.345 550.329 654.202Z"/><path fill="white" d="M211.809 511.538C221.905 511.775 222.812 511.034 233.213 512.993C233.464 514.859 233.827 517.795 235.766 518.617C244.047 522.13 286.073 526.469 291.246 531.689C287.254 534.3 243.345 530.171 235.146 530.283C228.478 529.41 213.393 532.816 208.289 528.841C205.245 526.47 211.146 514.997 211.809 511.538Z"/><path fill="#272322" d="M209.08 512.013L211.809 511.538C211.146 514.997 205.245 526.47 208.289 528.841C213.393 532.816 228.478 529.41 235.146 530.283C243.345 530.171 287.254 534.3 291.246 531.689C286.073 526.469 244.047 522.13 235.766 518.617C233.827 517.795 233.464 514.859 233.213 512.993C235.532 513.117 235.335 512.713 236.632 513.925L236.838 515.075C237.314 516.811 238.224 517.208 240.028 517.457C249.03 518.703 291.704 524.491 295.266 531.21C295.312 532.867 295.321 532.748 294.392 534.131C290.478 536.725 273.868 535.155 268.49 534.885C258.125 534.36 247.756 533.913 237.385 533.546C228.41 533.272 218.127 534.346 209.207 533.213C207.912 533.049 205.821 531.776 205.213 530.523C202.441 524.812 207.264 518.32 208.909 512.63L209.08 512.013Z"/><path fill="white" d="M562.944 871.163C564.256 870.966 566.382 872.124 567.581 872.727C571.689 874.798 575.482 875.826 579.995 876.669L582.248 877.085C583.904 877.432 584.567 877.438 586.005 878.161C578.91 881.532 571.218 885.792 563.496 887.331C562.424 887.475 557.143 887.986 556.511 887.037C552.665 881.263 560.111 874.045 562.944 871.163Z"/><path fill="#272322" d="M233.756 509.472C237.643 494.881 243.019 482.153 248.223 468.059C251.162 460.098 252.819 451.093 256.18 443.222C258.369 438.097 258.473 428.591 262.334 425.009L263.286 424.977C264.222 427.004 263.396 431.945 262.573 433.958C257.728 445.805 254.723 458.793 250.508 470.828C245.981 483.754 240.023 496.503 236.869 509.963C236.222 509.784 234.505 509.582 233.756 509.472Z"/><path fill="#272322" d="M559.887 870.44C561.289 870.663 561.602 870.727 562.944 871.163C560.111 874.045 552.665 881.263 556.511 887.037C557.143 887.986 562.424 887.475 563.496 887.331C571.218 885.792 578.91 881.532 586.005 878.161C588.574 877.821 590.342 877.947 592.531 879.249C586.291 881.864 551.839 899.866 552.389 884.25C552.587 878.651 555.959 874.134 559.887 870.44Z"/><path fill="#46231B" d="M515.405 587.194C520.089 584.234 524.456 582.252 530.084 582.038C526.995 583.703 522.744 584.387 520.113 585.994C519.434 586.409 520.707 587.83 518.662 588.753L517.918 588.412C517.712 586.795 517.457 587.294 516.092 587.23L515.405 587.194Z"/><path fill="#272322" d="M333.046 539.63C335.245 536.828 336.66 537.33 340.001 536.84C361.829 533.63 383.472 534.434 405.426 535.004C420.793 535.403 436.996 533.441 452.061 536.727C452.959 536.922 452.619 539.911 452.562 540.545C473.889 540.959 504.859 538.539 523.848 549.078C531.444 554.494 537.945 567.142 531.484 575.624C528.281 579.728 522.78 579.272 518.225 579.486C482.461 581.165 446.807 582.902 410.981 582.51C402.697 582.842 394.138 581.846 385.906 582.169C341.683 583.904 297.548 583.376 253.317 583.183L222.824 583.048C212.046 583.093 201.043 583.266 190.301 582.113C184.323 581.619 179.759 580.108 175.204 576.098C166.885 568.773 164.374 550.991 172.799 542.89C175.453 540.339 179.259 539.752 182.797 539.569C195.078 538.937 207.333 540.105 219.648 540.111L323.953 540.567C325.932 540.395 332.531 540.995 333.046 539.63Z"/><defs><linearGradient id="gradient_1" gradientUnits="userSpaceOnUse" x1="392.01056" y1="546.06" x2="394.00537" y2="529.81024"><stop offset="0" stop-color="#1D1C1A"/><stop offset="1" stop-color="#3F2A28"/></linearGradient></defs><path fill="url(#gradient_1)" d="M333.046 539.63C335.245 536.828 336.66 537.33 340.001 536.84C361.829 533.63 383.472 534.434 405.426 535.004C420.793 535.403 436.996 533.441 452.061 536.727C452.959 536.922 452.619 539.911 452.562 540.545L451.941 540.467C450.81 539.642 450.837 539.6 449.495 539.167C438.407 537.144 422.649 538.466 411.348 538.059C387.653 537.206 368.292 536.561 344.711 539.625C340.086 539.514 338.493 540.506 333.046 539.63Z"/><path fill="white" d="M344.711 539.625C368.292 536.561 387.653 537.206 411.348 538.059C422.649 538.466 438.407 537.144 449.495 539.167L448.551 540.532C443.74 540.52 438.867 540.567 434.058 540.739C404.708 541.792 375.16 540.162 345.836 540.67C345.08 540.38 344.754 540.494 344.711 539.625Z"/><path fill="#CFCECB" d="M333.046 539.63C338.493 540.506 340.086 539.514 344.711 539.625C344.754 540.494 345.08 540.38 345.836 540.67C342.565 541.375 327.609 541.046 323.953 540.567C325.932 540.395 332.531 540.995 333.046 539.63Z"/><path fill="#CFCECB" d="M449.495 539.167C450.837 539.6 450.81 539.642 451.941 540.467C450.811 540.5 449.681 540.522 448.551 540.532L449.495 539.167Z"/><path fill="white" d="M183.804 542.688C190.683 541.878 198.335 542.6 205.277 542.909C211.57 543.188 217.69 543.219 223.99 543.21C265.663 543.102 307.336 543.467 349 544.304C398.777 544.831 449.023 543.26 498.763 545.037C505.54 545.28 515.572 547.802 521.406 551.325C526.004 554.103 530.962 561.214 531.17 566.808C531.26 576.697 520.772 576.335 514.375 576.43C506.431 576.449 498.456 577.316 490.517 577.644C460.027 579.148 429.807 579.73 399.286 579.583C351.71 579.354 304.442 581.029 256.807 580.165L214.849 579.766C205.156 579.66 195.765 579.92 186.183 578.153C170.613 575.281 165.881 555.157 175.831 543.945C178.461 543.392 181.14 543.063 183.804 542.688Z"/><path fill="#272322" d="M199.845 593.197C218.092 592.942 212.271 608.87 213.013 621.843C214.087 640.617 212.53 659.836 212.606 678.5L212.42 819.258C212.32 833.124 213.675 847.114 213.43 860.942C213.259 870.54 210.397 877.621 200.239 879.159C185.702 875.466 188.017 867.105 187.512 855.041C185.971 818.28 187.077 781.47 186.976 744.709L185.748 647.499C185.634 640.685 183.643 603.887 185.448 600.309C185.528 600.15 185.623 599.998 185.709 599.842C186.141 599.058 186.57 598.316 187.162 597.637C190.296 594.042 195.403 593.594 199.845 593.197Z"/><path fill="white" d="M199.079 596.188C201.114 596.01 203.448 596.008 205.39 596.714C207.157 597.356 208.442 598.606 209.178 600.332C210.9 604.368 209.46 691.806 209.487 704.916C209.508 714.796 210.05 724.668 210.169 734.548C210.289 744.554 209.722 754.553 209.689 764.558C209.664 771.927 210.179 779.289 210.149 786.66C210.102 798.343 209.449 810.012 209.453 821.708C209.457 834.455 210.351 847.261 210.127 859.986C210.067 863.425 210.065 866.822 208.69 870.045C207.268 873.378 205.086 874.378 201.851 875.671C199.186 875.496 196.4 874.708 194.281 873.026C192.398 871.532 191.351 869.375 191.055 867.019C190.522 862.781 190.671 858.245 190.548 853.961C190.272 845.127 190.091 836.29 190.005 827.452L190.138 740.984C190.078 704.554 188.809 668.089 188.533 631.654C188.47 623.32 187.813 614.86 187.979 606.557C188.028 604.087 188.316 601.653 189.93 599.669C192.202 596.874 195.76 596.576 199.079 596.188Z"/><path fill="#272322" d="M235.003 251.461C243.637 250.718 247.287 256.736 249.35 264.251C251.552 272.271 252.85 280.639 254.974 288.666L274.524 361.567L289.491 417.963C293.154 431.516 296.948 445.287 300.171 458.939C301.36 463.972 302.261 471.731 301.163 476.797C300.255 480.988 298.879 482.737 295.469 484.982C283.646 486.582 281.377 467.947 279.069 459.327L270.116 425.898L236.328 296.095C233.154 283.81 222.389 260.845 235.003 251.461Z"/><path fill="white" d="M235.396 254.425C237.47 254.52 239.329 254.776 241.073 256.064C245.337 259.248 246.595 265.988 247.701 270.916C249.364 278.327 251.06 285.698 253.065 293.037L277.785 386.396C284.342 412.025 292.32 438.163 297.826 464.073C299.094 470.041 299.159 476.3 295.428 481.448C290.192 481.926 287.471 479.006 286.039 474.023C283.914 466.63 282.401 459.03 280.32 451.6C274.242 429.819 268.341 407.988 262.617 386.111C260.279 377.029 258.356 368.025 255.928 358.894L238.646 292.609C236.119 282.806 227.817 263.681 235.396 254.425Z"/><path fill="#272322" d="M675.422 218.588C678.17 218.42 683.672 217.683 685.445 220.325C683.15 222.842 676.334 220.633 672.455 222.923C666.365 226.516 665.118 233.889 658.667 237.376C651.854 241.328 645.127 236.457 638.505 234.459C627.696 231.2 627.168 244.698 620.403 246.658C611.323 249.291 594.153 238.479 590.93 253.614C591.295 257.058 592.477 258.426 590.954 261.573L590.245 261.628C587.567 258.724 586.944 252.488 589.07 249.036C597.278 235.704 610.032 246.338 620.398 242.862C624.482 241.493 627.019 230.46 634.043 230.99C641.755 230.163 649.734 237.36 655.74 234.943C665.636 230.96 662.186 221.504 675.422 218.588Z"/><path fill="#272322" d="M618.178 142.123C620.327 142.685 619.575 142.103 620.795 143.515C622.849 158.122 615.835 166.048 603.026 170.007C588.865 174.384 593.752 182.607 590.869 193.151C588.688 198.625 581.163 199.95 576.749 201.519C559.24 207.739 574.094 225.941 555.863 231.927C554.079 231.381 554.79 231.881 553.679 230.347L554.03 229.519C569.943 222.393 558.969 209.199 570.247 201.566C581.707 193.811 590.061 199.998 589.126 180.679C588.568 169.149 606.066 166.684 612.888 161.31C618.156 157.161 617.992 148.676 618.178 142.123Z"/><path fill="#272322" d="M532.602 109.253L534.482 109.447C536.757 111.033 537.226 113.769 537.688 116.589C539.185 125.732 532.994 130.043 528.366 136.272C522.635 143.985 527.087 149.13 528.219 156.228C529.539 165.644 520.887 169.346 516.53 174.815C512.976 179.277 523.293 195.392 517.623 201.609C514.342 205.207 512.613 205.906 508.21 206.879C506.331 205.774 506.508 206.284 505.979 204.694C506.921 202.843 512.465 203.521 514.468 200.55C518.981 193.852 512.948 185.145 512.549 177.889C512.204 171.613 517.882 169.933 522.258 164.837C529.586 156.303 521.158 148.625 522.372 142.914C525.556 127.94 535.115 133.987 534.459 114.699C532.813 112.445 532.008 112.018 532.602 109.253Z"/><path fill="#272322" d="M422.526 235.688C428.153 235.162 434.947 235.764 440.494 237.114C443.179 237.767 447.035 238.625 449.065 240.473C449.782 241.126 449.838 242.85 448.862 243.379C445.712 245.138 441.216 242.431 437.998 242.012C434.501 241.346 433.641 241.695 430.263 242.148C426.61 243.282 406.981 252.079 405.677 245.586C404.266 238.557 417.387 236.252 422.526 235.688Z"/><path fill="white" d="M425.963 240C422.567 241.319 411.547 246.599 409.996 245.004C405.77 240.657 424.524 238.46 425.528 238.325L425.963 240Z"/><path fill="#CFCECB" d="M425.528 238.325L426.482 238.398C426.485 238.398 428.723 238.447 428.285 238.966C427.847 239.484 426.576 239.767 425.963 240L425.528 238.325Z"/><path fill="#272322" d="M415.576 220.693C424.278 219.879 450.597 223.493 454.379 231.362L453.969 232.269C450.868 232.833 441.081 226.798 436.23 225.674C430.018 224.236 427.751 223.847 421.153 223.487C410.999 223.438 401.638 225.624 393.039 231.123C391.161 232.324 385.84 236.335 384.072 234.681C384.589 231.332 389.511 229.372 392.083 227.903C400.122 223.316 406.45 221.646 415.576 220.693Z"/><path fill="#272322" d="M516.96 328.617C518.984 328.397 534.995 327.813 533.215 332.847C528.613 334.55 526.271 329.946 519.497 331.42C508.172 333.885 505.878 334.68 498.881 344.61C497.363 347.123 495.498 351.074 494.738 353.904C495.138 355.293 491.012 357.712 491.543 355.266C494.568 341.307 503.595 331.26 516.96 328.617Z"/><path fill="#272322" d="M507.458 272.253C514.552 274.617 501.642 292.495 483.539 276.773C482.867 275.494 481.909 273.804 483.715 272.823C485.458 272.981 488.408 276.978 490.496 277.98C500.268 282.669 502.913 279.964 507.458 272.253Z"/><path fill="#272322" d="M478.635 311.648C488.99 314.556 476.052 334.874 463.947 324.597C463.696 323.618 462.943 321.049 463.165 320.114L463.171 320.255L463.394 319.651C464.253 319.551 470.413 327.952 476.235 322.478C480.379 318.582 478.255 316.33 478.635 311.648Z"/><path fill="#272322" d="M464.249 287.637L464.748 287.714C466.034 287.9 467.239 287.88 467.389 289.496C468.463 301.056 464.588 303.501 454.251 304.959C453.046 304.55 450.953 303.777 451.12 302.581C451.459 300.172 458.735 302.71 461.854 299.2C465.454 295.148 463.871 292.287 464.249 287.637Z"/><path fill="#272322" d="M513.8 289.678C517.716 290.579 518.497 293.293 516.721 297.191C513.864 303.459 508.852 305.96 502.376 302.973C497.323 298.542 501.928 297.891 503.124 299.378C505.413 302.224 508.043 302.013 510.778 300.05C514.092 297.671 513.514 293.22 513.8 289.678Z"/><path fill="#272322" d="M490.502 302.679C493.31 303.827 498.156 315.378 500.514 318.178C501.068 318.836 499.546 321.056 499.197 321.629C497.172 320.003 495.351 316.427 494.572 314.005C492.955 308.974 486.604 306.549 490.502 302.679Z"/></svg>